<?xml version="1.0" encoding="utf-8"?>
<!-- Generator: Adobe Illustrator 21.0.2, SVG Export Plug-In . SVG Version: 6.00 Build 0)  -->
<svg version="1.1" id="Layer_1" xmlns="http://www.w3.org/2000/svg" xmlns:xlink="http://www.w3.org/1999/xlink" x="0px" y="0px"
	 viewBox="0 0 356.3 149.7" style="enable-background:new 0 0 356.3 149.7;" xml:space="preserve">
<style type="text/css">
	.st0{enable-background:new    ;}
	.st1{fill:#F0F1DC;}
</style>
<g class="st0">
	<path class="st1" d="M74.9,78.4l-23.5,27.4H12.7V69.1H2.9V50.9h9.8V14.1h38.6l23.5,27.6L59.2,59.9L74.9,78.4z M51.2,41.7l-8-9.5
		H30.8v18.7h12.4L51.2,41.7z M51.2,78.4l-8-9.4H30.8v18.6h12.4L51.2,78.4z"/>
</g>
<g class="st0">
	<path class="st1" d="M170,59.9l-49.4,49.7L70.9,59.9l49.7-49.6L170,59.9z M144.4,59.9l-23.9-24l-24,24l24,24L144.4,59.9z"/>
	<path class="st1" d="M276.8,59.9l-49.4,49.7l-49.7-49.7l49.7-49.6L276.8,59.9z M251.2,59.9l-23.9-24l-24,24l24,24L251.2,59.9z"/>
</g>
<g class="st0">
	<path class="st1" d="M304.3,106h-18.1V14.1h18.1V106z M349.2,105.8h-15.8l-26.8-45.8l26.8-45.8h15.8v18.1h-5.5l-16.2,27.7
		l16.2,27.7h5.5V105.8z"/>
</g>
</svg>
