<?xml version="1.0"?>
<svg xmlns="http://www.w3.org/2000/svg" xmlns:xlink="http://www.w3.org/1999/xlink" version="1.1" id="Capa_1" x="0px" y="0px" viewBox="0 0 475.082 475.082" style="enable-background:new 0 0 475.082 475.082;" xml:space="preserve" width="512px" height="512px" class=""><g><g>
	<path d="M230.474,249.47c1.86,1.86,4.43,2.93,7.07,2.93c2.63,0,5.21-1.07,7.07-2.93c1.86-1.86,2.93-4.44,2.93-7.07   c0-2.64-1.07-5.21-2.93-7.07c-1.86-1.86-4.44-2.93-7.07-2.93c-2.64,0-5.21,1.07-7.07,2.93c-1.86,1.86-2.93,4.44-2.93,7.07   S228.614,247.61,230.474,249.47z" data-original="#000000" class="active-path" data-old_color="#000000" fill="#F0F1DC"/>
	<path d="M41.804,206.15c2.63,0,5.21-1.06,7.07-2.93c1.86-1.86,2.93-4.43,2.93-7.07c0-2.63-1.07-5.21-2.93-7.07   c-1.86-1.86-4.44-2.93-7.07-2.93c-2.64,0-5.21,1.07-7.07,2.93c-1.87,1.87-2.93,4.44-2.93,7.07c0,2.64,1.06,5.21,2.93,7.07   C36.594,205.09,39.164,206.15,41.804,206.15z" data-original="#000000" class="active-path" data-old_color="#000000" fill="#F0F1DC"/>
	<path d="M433.284,206.15c2.63,0,5.21-1.06,7.07-2.92c1.86-1.87,2.93-4.44,2.93-7.08c0-2.63-1.07-5.21-2.93-7.07   c-1.86-1.86-4.44-2.93-7.07-2.93s-5.21,1.07-7.07,2.93c-1.87,1.86-2.93,4.44-2.93,7.07c0,2.64,1.06,5.21,2.93,7.08   C428.074,205.09,430.654,206.15,433.284,206.15z" data-original="#000000" class="active-path" data-old_color="#000000" fill="#F0F1DC"/>
	<path d="M23.21,261.633c13.59,12.734,31.331,19.747,49.954,19.747h328.756c18.623,0,36.363-7.013,49.953-19.747   c20.135-18.867,27.8-46.018,20.504-72.628s-27.736-46.056-54.678-52.016c-2.677-0.593-5.481-0.058-7.754,1.475   c-2.273,1.534-3.816,3.935-4.269,6.639c-5.653,33.79-34.622,58.315-68.882,58.315H138.288c-34.26,0-63.229-24.525-68.882-58.316   c-0.452-2.705-1.996-5.105-4.269-6.639c-2.273-1.534-5.077-2.065-7.754-1.475c-26.942,5.96-47.382,25.405-54.678,52.016   S3.075,242.766,23.21,261.633z M138.509,242.398l18.98-18.98h23.003l-9.961,12.855c-2.793,3.605-2.793,8.645,0,12.25l9.962,12.856   h-23.002L138.509,242.398z M336.572,242.398l-18.981,18.981h-23.002l9.962-12.856c2.793-3.605,2.793-8.645,0-12.25l-9.961-12.855   h23.003L336.572,242.398z M283.995,242.398l-14.708,18.981h-63.492l-14.708-18.981l14.707-18.98h63.493L283.995,242.398z    M422.824,159.508c14.842,6.232,25.856,18.708,30.264,34.785c3.054,11.138,2.491,22.404-1.327,32.576l-35.375-9.995l-3.651-35.198   C417.023,174.884,420.448,167.453,422.824,159.508z M394.767,202.299l2.425,23.386c0.423,4.074,3.287,7.478,7.228,8.592   l36.288,10.252c-0.806,0.857-1.641,1.695-2.512,2.51c-9.87,9.248-22.753,14.341-36.278,14.341h-56.043l11.91-11.91   c3.905-3.905,3.905-10.237,0-14.143l-12.334-12.334C364.078,221.222,381.137,213.797,394.767,202.299z M129.63,222.993   l-12.334,12.334c-3.905,3.905-3.905,10.237,0,14.143l11.91,11.91H73.163c-13.525,0-26.409-5.093-36.279-14.341   c-0.908-0.851-1.781-1.725-2.619-2.621l35.893-10.141c3.941-1.114,6.805-4.518,7.228-8.592l2.466-23.776   C93.558,213.63,110.793,221.202,129.63,222.993z M21.994,194.292c4.408-16.076,15.422-28.552,30.264-34.784   c2.296,7.675,5.575,14.867,9.659,21.47l-3.723,35.895l-34.921,9.867C19.497,216.602,18.953,205.384,21.994,194.292z" data-original="#000000" class="active-path" data-old_color="#000000" fill="#F0F1DC"/>
	<path d="M451.421,296.967c-16.873,0-25.804,7.135-32.979,12.869c-6.172,4.931-10.631,8.494-20.496,8.494   s-14.324-3.563-20.496-8.494c-7.176-5.733-16.107-12.869-32.98-12.869c-16.872,0-25.801,7.135-32.977,12.869   c-6.17,4.931-10.629,8.494-20.492,8.494s-14.321-3.563-20.493-8.494c-7.175-5.733-16.105-12.869-32.977-12.869   c-16.872,0-25.801,7.136-32.977,12.869c-6.17,4.931-10.629,8.493-20.491,8.493s-14.32-3.563-20.491-8.493   c-7.175-5.733-16.104-12.869-32.976-12.869c-16.872,0-25.802,7.135-32.977,12.869c-6.171,4.931-10.63,8.494-20.493,8.494   c-9.862,0-14.32-3.563-20.491-8.493c-7.175-5.733-16.105-12.869-32.977-12.869c-5.523,0-10,4.477-10,10s4.477,10,10,10   c9.862,0,14.321,3.563,20.491,8.493c7.175,5.734,16.105,12.869,32.976,12.869c16.872,0,25.802-7.135,32.977-12.869   c6.171-4.931,10.63-8.494,20.493-8.494c9.862,0,14.32,3.563,20.491,8.493c7.175,5.733,16.104,12.869,32.976,12.869   c16.871,0,25.801-7.135,32.976-12.869c6.17-4.931,10.629-8.493,20.491-8.493c9.863,0,14.321,3.563,20.493,8.494   c7.175,5.733,16.105,12.869,32.977,12.869s25.802-7.136,32.977-12.869c6.17-4.931,10.629-8.493,20.491-8.493   c9.865,0,14.324,3.563,20.496,8.494c7.176,5.733,16.107,12.869,32.98,12.869s25.804-7.135,32.98-12.869   c6.172-4.931,10.631-8.494,20.496-8.494c5.523,0,10-4.477,10-10S456.944,296.967,451.421,296.967z" data-original="#000000" class="active-path" data-old_color="#000000" fill="#F0F1DC"/>
</g></g> </svg>
