<?xml version="1.0" encoding="utf-8"?>
<!-- Generator: Adobe Illustrator 21.0.2, SVG Export Plug-In . SVG Version: 6.00 Build 0)  -->
<svg version="1.1" id="Layer_1" xmlns="http://www.w3.org/2000/svg" xmlns:xlink="http://www.w3.org/1999/xlink" x="0px" y="0px"
	 viewBox="0 0 456 97.9" style="enable-background:new 0 0 456 97.9;" xml:space="preserve">
<style type="text/css">
	.st0{enable-background:new    ;}
	.st1{fill:#F0F1DC;}
	.st2{display:none;enable-background:new    ;}
	.st3{display:inline;fill:#F0F1DC;}
</style>
<g class="st0">
	<path class="st1" d="M56.4,92.5H27L0,46.7L27,0.9h29.4V19H37.3L21,46.6l16.3,27.7h19.1C56.4,74.3,56.4,92.5,56.4,92.5z"/>
	<path class="st1" d="M118.5,92.5H66.1V74.4h7V0.8h18.1v73.6h27.4L118.5,92.5L118.5,92.5z"/>
	<path class="st1" d="M146.4,92.7h-18.1V0.8h18.1V92.7z"/>
</g>
<g class="st0">
	<path class="st1" d="M257.2,92.4l-15.6,5.5l-19.9-55.3l-14.8,26.3L192,42.6l-19.9,55.3l-15.5-5.5l32.1-89.7L206.9,35l18.2-32.3
		L257.2,92.4z"/>
</g>
<g class="st0">
	<path class="st1" d="M329.9,65.1l-23.5,27.4h-38.6V55.8H258V37.6h9.8V0.8h38.6l23.5,27.6l-15.7,18.2L329.9,65.1z M306.2,28.4
		l-8-9.5h-12.4v18.7h12.4L306.2,28.4z M306.2,65.1l-8-9.4h-12.4v18.6h12.4L306.2,65.1z"/>
</g>
<g class="st2">
	<path class="st3" d="M65.3,96.2H46.4v-41H26.2v41H7.4v-41H0V36.3h7.4V0.7h18.8v35.6h20.4V0.7h18.8V96.2z"/>
	<path class="st3" d="M92.1,96.2H73.2V0.7H92v95.5H92.1z"/>
	<path class="st3" d="M118.9,96.2H100V0.7h18.8v95.5H118.9z M165.5,96h-16.4l-27.8-47.6l27.8-47.6h16.4v18.8h-5.7l-16.8,28.8
		l16.8,28.8h5.7V96z"/>
	<path class="st3" d="M228,96h-54.4V77.2h7.3v-22h-7.3V36.3h7.3V19.5h-7.3V0.7H228v18.8h-28.5v16.8H228v18.8h-28.5V77H228V96z"/>
</g>
</svg>
