<?xml version="1.0" encoding="iso-8859-1"?>
<!-- Generator: Adobe Illustrator 19.0.0, SVG Export Plug-In . SVG Version: 6.00 Build 0)  -->
<svg xmlns="http://www.w3.org/2000/svg" xmlns:xlink="http://www.w3.org/1999/xlink" version="1.1" id="Layer_1" x="0px" y="0px" viewBox="0 0 511.982 511.982" style="enable-background:new 0 0 511.982 511.982;" xml:space="preserve" width="512px" height="512px">
<g>
	<g>
		<path d="M483.794,137.659c-3.594-14.929-10.358-26.522-20.108-34.468c-15.921-12.96-36.108-19.53-59.998-19.53    c-29.796,0-65.826,10.375-107.075,30.835c-30.287,15.023-52.678,30.265-55.13,31.952c-8.688,5.977-13.859,15.828-13.859,26.366    v40.515c-5.89,0-10.671,4.773-10.671,10.664v85.341c0,5.875,4.781,10.656,10.671,10.656v50.139c0,8.484,3.281,16.467,9.25,22.498    c0.625,0.641,15.703,15.844,35.757,31.203c30.654,23.467,56.42,34.873,78.794,34.873c2.905,0,5.78-0.188,8.562-0.562    c13.031-1.812,25.625-9.359,37.406-22.467c9.702-10.781,19.295-25.609,29.326-45.312c15.328-30.092,30.547-70.246,41.718-110.152    c10.14-36.131,16.39-69.528,18.093-96.598C487.7,165.213,486.794,150.182,483.794,137.659z M248.95,192.002h21.328v21.327H248.95    V192.002z M245.825,280.459c-2.078-2.094-4.812-3.125-7.546-3.125v-21.342c2.734,0,5.468-1.039,7.546-3.117    c4.172-4.172,4.172-10.922,0-15.086c-2.078-2.086-4.812-3.125-7.531-3.125h42.663c-2.734,0-5.469,1.039-7.546,3.125    c-4.164,4.164-4.164,10.914,0,15.086c2.093,2.078,4.812,3.117,7.546,3.117v21.342c-2.734,0-5.453,1.031-7.546,3.125    c-4.164,4.156-4.164,10.906,0,15.078c2.093,2.078,4.812,3.125,7.546,3.125h-42.678c2.734,0,5.468-1.047,7.546-3.125    C249.997,291.365,249.997,284.615,245.825,280.459z M248.95,319.99h21.328v31.998H248.95V319.99z M465.248,182.267    c-1.625,25.601-7.624,57.475-17.343,92.191c-10.828,38.594-25.469,77.311-40.202,106.232    c-18.187,35.701-34.749,54.123-50.624,56.311c-1.828,0.25-3.719,0.375-5.64,0.375c-0.016,0-0.016,0-0.016,0    c-17.265,0-39.405-10.266-65.826-30.484c-18.835-14.438-32.976-28.654-33.569-29.264c-1.203-1.219-2.078-2.703-2.578-4.297h29.147    c5.422,4.844,12.405,10.826,20.171,16.764c21.875,16.734,40.577,25.953,52.655,25.953c0,0,0,0,0.016,0    c0.952,0,1.874-0.062,2.718-0.188c4.672-0.625,17.203-10.812,34.531-44.857c14.124-27.703,28.217-65.014,38.67-102.311    c9.203-32.818,15.094-63.989,16.594-87.77c2.156-34.218-4.969-42.827-7.219-44.647c-8.094-6.601-19.219-9.952-33.046-9.952    c-40.905,0-93.825,28.226-120.715,44.342h-33.804c0.547-2.672,2.109-5.062,4.406-6.64c3.5-2.414,86.521-59.03,150.112-59.03    c18.858,0,34.515,4.953,46.53,14.734C462.357,129.629,467.279,150.081,465.248,182.267z M291.628,213.329v-22.96    c10.219-6.203,25.547-14.969,42.688-22.938c27.826-12.937,51.826-19.772,69.372-19.772c5.297,0,12.343,0.688,17.53,3.742    c0.891,2.953,2.531,11.023,1.453,28.179c-1.422,22.327-7.047,51.928-15.858,83.355c-10.077,36.008-23.624,71.865-37.124,98.396    c-10.328,20.25-17.688,29.311-21.187,32.936c-5.984-1.5-18.343-7.031-36.78-21.123c-7.844-5.984-14.844-12.031-20.094-16.797    V319.99c5.891,0,10.656-4.781,10.656-10.656v-85.341C302.284,218.102,297.518,213.329,291.628,213.329z" fill="#F0F1DC"/>
	</g>
</g>
<g>
	<g>
		<path d="M267.153,259.115c-4.156-4.162-10.906-4.162-15.078,0c-4.172,4.172-4.172,10.922,0,15.094    c4.172,4.156,10.922,4.156,15.078,0C271.325,270.037,271.325,263.287,267.153,259.115z" fill="#F0F1DC"/>
	</g>
</g>
<g>
	<g>
		<path d="M99.627,0c-41.171,0-74.67,33.499-74.67,74.669v405.315c0,17.656,14.359,31.998,31.999,31.998    s31.999-14.342,31.999-31.998V74.669c0-5.882,4.781-10.671,10.672-10.671c5.875,0,10.656,4.789,10.656,10.671v405.315    c0,17.656,14.359,31.998,31.999,31.998c17.656,0,31.999-14.342,31.999-31.998V74.669C174.281,33.499,140.797,0,99.627,0z     M46.284,100.419l21.343,21.335v55.161l-21.343-21.334V100.419z M46.284,185.752l21.343,21.327v55.161l-21.343-21.326V185.752z     M46.284,271.076l21.343,21.336v55.17l-21.343-21.344V271.076z M46.284,356.41l21.343,21.328v55.17L46.284,411.58V356.41z     M67.628,479.984c0,5.875-4.797,10.672-10.672,10.672s-10.671-4.797-10.671-10.672v-38.248l21.343,21.342V479.984z M99.627,42.67    c-17.656,0-31.999,14.352-31.999,31.999v16.914L46.472,70.434c2.172-27.437,25.171-49.1,53.155-49.1    c27.968,0,50.982,21.663,53.139,49.1l-21.14,21.148V74.669C131.626,57.021,117.266,42.67,99.627,42.67z M152.953,479.984    c0,5.875-4.781,10.672-10.671,10.672c-5.875,0-10.656-4.797-10.656-10.672v-16.906l21.327-21.342V479.984z M152.953,411.58    l-21.327,21.328v-55.17l21.327-21.328V411.58z M152.953,326.238l-21.327,21.344v-55.17l21.327-21.336V326.238z M152.953,240.914    l-21.327,21.326v-55.161l21.327-21.327V240.914z M152.953,155.581l-21.327,21.335v-55.162l21.327-21.335V155.581z" fill="#F0F1DC"/>
	</g>
</g>
<g>
</g>
<g>
</g>
<g>
</g>
<g>
</g>
<g>
</g>
<g>
</g>
<g>
</g>
<g>
</g>
<g>
</g>
<g>
</g>
<g>
</g>
<g>
</g>
<g>
</g>
<g>
</g>
<g>
</g>
</svg>
