<?xml version="1.0"?>
<svg xmlns="http://www.w3.org/2000/svg" xmlns:xlink="http://www.w3.org/1999/xlink" version="1.1" id="Layer_1" x="0px" y="0px" viewBox="0 0 512 512" style="enable-background:new 0 0 512 512;" xml:space="preserve" width="512px" height="512px" class=""><g><g>
	<g>
		<path d="M498.824,239.723l-120.572-25.668c-12.93-37.58-42.728-67.378-80.308-80.308L272.276,13.176    C270.641,5.493,263.854,0,256,0s-14.641,5.493-16.276,13.176l-25.669,120.572c-37.58,12.93-67.378,42.728-80.308,80.308    L13.176,239.723C5.493,241.359,0,248.144,0,256s5.493,14.641,13.176,16.276l120.572,25.668    c12.93,37.58,42.728,67.378,80.308,80.308l25.668,120.572C241.361,506.507,248.146,512,256,512s14.641-5.493,16.276-13.176    l25.668-120.572c37.58-12.93,67.378-42.728,80.308-80.308l120.572-25.668C506.507,270.639,512,263.854,512,256    S506.506,241.359,498.824,239.723z M126.917,262.462L96.56,256l30.357-6.462c-0.11,2.215-0.161,4.426-0.161,6.462    C126.757,257.827,126.798,260.058,126.917,262.462z M256,96.56l6.462,30.357c-4.293-0.213-8.628-0.213-12.924,0L256,96.56z     M256,415.439l-6.462-30.357c4.326,0.215,8.624,0.213,12.924,0L256,415.439z M270.828,350.815c-9.795,1.51-19.862,1.51-29.657,0    c-45.722-7.097-81.133-46.797-81.133-94.815c0-47.875,35.264-87.696,81.133-94.815c9.795-1.51,19.862-1.51,29.657,0    c45.813,7.111,81.132,46.888,81.132,94.815C351.962,303.882,316.69,343.697,270.828,350.815z M385.082,262.462    c0.11-2.215,0.161-4.426,0.161-6.462c0-1.827-0.041-4.058-0.161-6.462L415.439,256L385.082,262.462z" data-original="#000000" class="active-path" data-old_color="#000000" fill="#F0F1DC"/>
	</g>
</g><g>
	<g>
		<path d="M256,206.078c-27.527,0-49.922,22.395-49.922,49.922s22.395,49.922,49.922,49.922s49.922-22.395,49.922-49.922    S283.527,206.078,256,206.078z" data-original="#000000" class="active-path" data-old_color="#000000" fill="#F0F1DC"/>
	</g>
</g></g> </svg>
