<?xml version="1.0" encoding="utf-8"?>
<!-- Generator: Adobe Illustrator 21.0.2, SVG Export Plug-In . SVG Version: 6.00 Build 0)  -->
<svg version="1.1" id="Layer_1" xmlns="http://www.w3.org/2000/svg" xmlns:xlink="http://www.w3.org/1999/xlink" x="0px" y="0px"
	 viewBox="0 0 373.7 149.7" style="enable-background:new 0 0 373.7 149.7;" xml:space="preserve">
<style type="text/css">
	.st0{enable-background:new    ;}
	.st1{fill:#F0F1DC;}
</style>
<g class="st0">
	<path class="st1" d="M76.8,105.8h-47L2.9,59.9l26.9-45.8h29.6v18.1H40.1L23.8,59.9l16.3,27.7h18.6V66.5H36.4V48.4h40.4V105.8z"/>
</g>
<g class="st0">
	<path class="st1" d="M158.6,105.8H135l-18.1-21.8h-10.7V106H88.1V14.1h37.8l29,34.9l-21.7,26.3L158.6,105.8z M131.4,49l-14-16.8
		h-11.2v33.6h11.2L131.4,49z"/>
</g>
<g class="st0">
	<path class="st1" d="M226.2,106h-18.1V84.9h-22.8V106h-18.1V84.9h-10.6V66.8h10.6V39.1l29.4-28.4l29.6,28.4V106z M208.1,66.8v-20
		l-11.5-10.9l-11.3,10.9v20H208.1z"/>
	<path class="st1" d="M300.7,32.2h-7.9l-27.6,55.4h35.3v18.1h-63.6V87.7h8.2l27.6-55.4h-28.9V14.1h57V32.2z"/>
</g>
<g class="st0">
	<path class="st1" d="M365.3,105.8h-52.4V87.7h7V66.5h-7V48.4h7V32.2h-7V14.1h52.4v18.1H338v16.2h27.4v18.1H338v21.1h27.4V105.8z"/>
</g>
</svg>
