<?xml version="1.0" encoding="utf-8"?>
<!-- Generator: Adobe Illustrator 21.0.2, SVG Export Plug-In . SVG Version: 6.00 Build 0)  -->
<svg version="1.1" id="Layer_1" xmlns="http://www.w3.org/2000/svg" xmlns:xlink="http://www.w3.org/1999/xlink" x="0px" y="0px"
	 viewBox="0 0 187.1 123.5" style="enable-background:new 0 0 187.1 123.5;" xml:space="preserve">
<style type="text/css">
	.st0{fill:none;stroke:#FFFFFF;stroke-width:0.6196;stroke-miterlimit:10;}
	.st1{fill:none;}
	.st2{fill:none;stroke:#FFFFFF;stroke-width:1.5;stroke-miterlimit:10;}
	.st3{fill:#FFFFFF;}
	.st4{fill:#FFFFFF;stroke:#FFFFFF;stroke-width:1.3922;stroke-miterlimit:10;}
	.st5{fill:#FFFFFF;stroke:#FFFFFF;stroke-width:1.1208;stroke-miterlimit:10;}
</style>
<ellipse class="st0" cx="93.9" cy="60.4" rx="92.9" ry="51.1"/>
<circle class="st0" cx="16.1" cy="60.4" r="2.2"/>
<circle class="st0" cx="169.8" cy="60.4" r="2.2"/>
<path id="SVGID_x5F_1_x5F_" class="st1" d="M176.1,80.8c0,28.6-37.2,51.7-83,51.7s-83-23.2-83-51.7s37.2-51.7,83-51.7
	S176.1,52.2,176.1,80.8z"/>
<text><textPath  xlink:href="#SVGID_x5F_1_x5F_" startOffset="82.8777%">
<tspan  class="st3" style="font-family:'Haymaker'; font-size:18px;">SPRUCE PEAK</tspan></textPath>
</text>
<path id="SVGID_x5F_2_x5F_" class="st1" d="M175.9,60.9c0-24.6-35.1-44.6-78.4-44.6s-78.4,20-78.4,44.6s35.1,44.6,78.4,44.6
	S175.9,85.6,175.9,60.9z"/>
<text><textPath  xlink:href="#SVGID_x5F_2_x5F_" startOffset="7149.8047%">
<tspan  style="fill:#FFFFFF;stroke:#FFFFFF;stroke-miterlimit:10; font-family:'Haymaker'; font-size:26px; letter-spacing:50;">LODGE</tspan></textPath>
</text>
<path class="st2" d="M95.6,50.9c-12.7-19.2-13.8-6-16.9,0l-9.3,17.8c-1.1,2,0.4,4.5,2.7,4.5h27.8"/>
<g>
	<g>
		<path class="st3" d="M102.8,43c1.3,0,2.4,0.7,3,1.8l14.5,27.8h-35l14.5-27.8C100.4,43.7,101.5,43,102.8,43 M102.8,41.5
			c-1.7,0-3.4,0.9-4.4,2.6l-15.6,30h39.9l-15.6-30C106.2,42.4,104.5,41.5,102.8,41.5L102.8,41.5z"/>
	</g>
</g>
<path class="st4" d="M79.2,49.1c-0.2,0.6,3.6-6.8,5.7-1.3c0.9,2.4,5.2-2.1,5.2-2.1s4,3.8,3.4,2.3c-1-2.5-4-11.4-5.9-10.4
	C83.8,38.3,80.4,46.6,79.2,49.1z"/>
<path class="st5" d="M96.1,48.8c-0.2,0.4,3.2-2.6,4.6-1c1.4,1.5,4.2,0,4.2,0s2.5,0.9,3.6,0.2s-3.6-9.4-5.6-8.4
	C99.8,40.1,97,46.8,96.1,48.8z"/>
<g>
	<g>
		<line class="st5" x1="117.2" y1="60.9" x2="117.3" y2="74.9"/>
		<polygon class="st5" points="113,63.8 117.5,55.1 122,63.8 		"/>
		<polygon class="st5" points="111.8,68.5 117.6,57.5 123.3,68.6 		"/>
		<polygon class="st5" points="111.1,73.4 117.8,60.7 124.3,73.5 		"/>
	</g>
</g>
<g>
	<g>
		<line class="st5" x1="70.4" y1="61.9" x2="70.5" y2="75.9"/>
		<polygon class="st5" points="66.2,64.8 70.7,56.1 75.2,64.8 		"/>
		<polygon class="st5" points="65,69.5 70.8,58.5 76.5,69.6 		"/>
		<polygon class="st5" points="64.3,74.4 71,61.7 77.5,74.5 		"/>
	</g>
</g>
</svg>
