<?xml version="1.0" encoding="utf-8"?>
<!-- Generator: Adobe Illustrator 21.0.2, SVG Export Plug-In . SVG Version: 6.00 Build 0)  -->
<svg version="1.1" id="Layer_1" xmlns="http://www.w3.org/2000/svg" xmlns:xlink="http://www.w3.org/1999/xlink" x="0px" y="0px"
	 viewBox="0 0 186.5 123.5" style="enable-background:new 0 0 186.5 123.5;" xml:space="preserve">
<style type="text/css">
	.st0{fill:none;stroke:#FFFFFF;stroke-width:0.62;stroke-miterlimit:10;}
	.st1{enable-background:new    ;}
	.st2{fill:#FFFFFF;}
	.st3{fill:none;stroke:#FFFFFF;stroke-miterlimit:10;}
	.st4{fill:none;stroke:#FFFFFF;stroke-width:1.5;stroke-miterlimit:10;}
	.st5{fill:#FFFFFF;stroke:#FFFFFF;stroke-width:1.39;stroke-miterlimit:10;}
	.st6{fill:#FFFFFF;stroke:#FFFFFF;stroke-width:1.12;stroke-miterlimit:10;}
	.st7{fill:none;stroke:#FFFFFF;stroke-width:1.12;stroke-miterlimit:10;}
</style>
<title>hotel_logo_outline2</title>
<ellipse class="st0" cx="93.2" cy="51.4" rx="92.9" ry="51.1"/>
<circle class="st0" cx="15.5" cy="51.4" r="2.2"/>
<circle class="st0" cx="169.1" cy="51.4" r="2.2"/>
<g class="st1">
	<path class="st2" d="M40.6,28.8l-1.1,3.1l-3.9,2.2l-3.2-0.7l-1.2-2.1l1.7-0.9l0.7,1.3l1.8,0.4l2.5-1.4l0.6-1.7l-0.7-1.3L36,27.3
		l-3,1.6l-3.2-0.7l-1.5-2.7l1.1-3.1l3.7-2l3.2,0.7l1.1,1.9l-1.7,0.9l-0.7-1.2l-1.7-0.3l-2.4,1.3l-0.6,1.6l0.7,1.2l1.7,0.4l3-1.7
		l3.2,0.7L40.6,28.8z"/>
</g>
<g class="st1">
	<path class="st2" d="M50,18.7l-1.1,3.1l-4.2,1.6l2,5.2L45,29.3l-2-5.2l-1.4-0.5l0.7-1.3l-2-5.3l5.9-2.3l2.9,1.5L50,18.7z
		 M47.9,18.6l-0.4-0.9L46,16.8l-3.3,1.3l1.4,3.5l3.3-1.3L47.9,18.6z"/>
</g>
<g class="st1">
	<path class="st2" d="M64.8,22.9l-2,0.5l-4.1-4.7l-2.3,0.6l1.4,5.4l-1.9,0.5l-1.4-5.4l-1.3-0.7L54,18l-1.5-5.5l6.2-1.6l2.7,1.8
		l0.7,2.6l-1.4,3L64.8,22.9z M60,15l-0.3-1l-1.4-1l-3.4,0.9l1,3.6l3.4-0.9L60,15z"/>
</g>
<g class="st1">
	<path class="st2" d="M76.8,14.2l-0.9,1.1l0.5,3.3l-2.1,2.6L69.7,22l-2.8-1.8l-0.5-3.3l-1.2-0.8l0.9-1.1l-0.9-5.6L67.1,9l1.6,10
		l1.5,1l3-0.5l1.2-1.4l-1.6-10l1.9-0.3l0.9,5.6L76.8,14.2z"/>
</g>
<g class="st1">
	<path class="st2" d="M90,17.8l-2.3,2.3L83,20.4l-2.6-2l-0.2-3.4L79,14l1-1l-0.2-3.5l2.4-2.3l4.7-0.3l2.6,2l0.2,2.8l-1.9,0.1
		l-0.1-1.9l-1.4-1.1l-3,0.2l-1.3,1.3l0.4,7l1.4,1.1l3-0.2L88,17l-0.1-1.6l1.9-0.1L90,17.8z"/>
</g>
<g class="st1">
	<path class="st2" d="M101,20.2L93,20l0.2-5.6l-1.1-1l1.1-0.9l0.2-5.7l8,0.2L101.3,9l-6-0.2l-0.1,3.7l4.7,0.1l-0.1,1.9l-4.7-0.1
		L95,18.1l6,0.2L101,20.2z"/>
</g>
<g class="st1">
	<path class="st2" d="M122.1,15.1l-2.6,2.1l-4.4-0.8l-1,5.5l-1.9-0.3l1-5.5l-0.9-1.1l1.3-0.8l1-5.6l6.3,1.1l1.7,2.8L122.1,15.1z
		 M120.3,13.9l0.2-1l-0.9-1.6l-3.5-0.6l-0.7,3.7l3.5,0.6L120.3,13.9z"/>
</g>
<g class="st1">
	<path class="st2" d="M131.5,26.1l-7.7-2.2l1.6-5.4l-0.8-1.2l1.3-0.6l1.6-5.4l7.7,2.2l-0.5,1.8l-5.8-1.7l-1,3.6l4.5,1.3l-0.5,1.8
		l-4.5-1.3l-1,3.5l5.8,1.7L131.5,26.1z"/>
</g>
<g class="st1">
	<path class="st2" d="M143.8,30.9l-1.9-0.8l0.1-3.5l-5-2.1l-2.4,2.6l-1.9-0.8l4.1-4.4l-0.5-1.2l1.8-0.2l4.2-4.5l1.9,0.8L143.8,30.9z
		 M142.1,24.6l0.2-5.7l-3.9,4.2L142.1,24.6z"/>
</g>
<g class="st1">
	<path class="st2" d="M153.9,36.7l-1.9-1.1l-0.8-7.1l-2,0.8l-2.1,3.5l-1.7-1l2.8-4.8l-0.5-1.4l1.4-0.3l2.8-4.9l1.7,1l-3.2,5.4
		l7.5-2.9l1.9,1.1l-7.1,2.7L153.9,36.7z"/>
</g>
<g class="st1">
	<path class="st2" d="M55.5,90.1l-10.6-4.6l3.2-7.4l-0.9-1.9l2-0.7l3.3-7.5l2.6,1.1l-6.5,15l8,3.5L55.5,90.1z"/>
</g>
<g class="st1">
	<path class="st3" d="M55.5,90.1l-10.6-4.6l3.2-7.4l-0.9-1.9l2-0.7l3.3-7.5l2.6,1.1l-6.5,15l8,3.5L55.5,90.1z"/>
</g>
<g class="st1">
	<path class="st2" d="M80.3,86.3l-1.8,1l-1,4.8l-4.1,2.4l-6.6-1.4l-2.9-3.8l1-4.8l-1.3-1.7l1.8-1.1l1-4.9l4.2-2.4l6.6,1.4l2.9,3.8
		l-1,4.9L80.3,86.3z M75,90.3l2-9.9l-1.6-2.1l-4.3-0.9l-2.3,1.3l-2,9.9l1.6,2.1l4.3,0.9L75,90.3z"/>
</g>
<g class="st1">
	<path class="st3" d="M80.3,86.3l-1.8,1l-1,4.8l-4.1,2.4l-6.6-1.4l-2.9-3.8l1-4.8l-1.3-1.7l1.8-1.1l1-4.9l4.2-2.4l6.6,1.4l2.9,3.8
		l-1,4.9L80.3,86.3z M75,90.3l2-9.9l-1.6-2.1l-4.3-0.9l-2.3,1.3l-2,9.9l1.6,2.1l4.3,0.9L75,90.3z"/>
</g>
<g class="st1">
	<path class="st2" d="M99.3,93.6l-3.7,3l-9.9-0.4l0.3-8.1l-1.5-1.5l1.6-1.3l0.3-8.2l9.9,0.4l3.4,3.3L99.3,93.6z M96.6,92.2L97,82.1
		L95,80.3l-5.9-0.2l-0.5,13.5l5.9,0.2L96.6,92.2z"/>
</g>
<g class="st1">
	<path class="st3" d="M99.3,93.6l-3.7,3l-9.9-0.4l0.3-8.1l-1.5-1.5l1.6-1.3l0.3-8.2l9.9,0.4l3.4,3.3L99.3,93.6z M96.6,92.2L97,82.1
		L95,80.3l-5.9-0.2l-0.5,13.5l5.9,0.2L96.6,92.2z"/>
</g>
<g class="st1">
	<path class="st2" d="M120.4,91.5l-3.2,3.6l-6.7,0.8l-3.9-2.7l-0.6-4.9l-1.7-1.2l1.4-1.6l-0.6-5l3.2-3.6l6.7-0.8l3.9,2.7l0.5,3.9
		l-2.8,0.3l-0.3-2.5l-2.2-1.6l-4.3,0.5l-1.8,1.9l1.2,10l2.2,1.5l4.3-0.5l1.7-2.1l-0.2-2l-3.7,0.4l-0.3-2.8l6.4-0.8L120.4,91.5z"/>
</g>
<g class="st1">
	<path class="st3" d="M120.4,91.5l-3.2,3.6l-6.7,0.8l-3.9-2.7l-0.6-4.9l-1.7-1.2l1.4-1.6l-0.6-5l3.2-3.6l6.7-0.8l3.9,2.7l0.5,3.9
		l-2.8,0.3l-0.3-2.5l-2.2-1.6l-4.3,0.5l-1.8,1.9l1.2,10l2.2,1.5l4.3-0.5l1.7-2.1l-0.2-2l-3.7,0.4l-0.3-2.8l6.4-0.8L120.4,91.5z"/>
</g>
<g class="st1">
	<path class="st2" d="M139.9,89.4l-11,3.3l-2.3-7.7l-1.9-0.9l1.1-1.8l-2.4-7.8l11-3.3l0.8,2.7l-8.4,2.5l1.6,5.2l6.4-2l0.8,2.7
		l-6.4,2l1.5,5.1l8.4-2.5L139.9,89.4z"/>
</g>
<g class="st1">
	<path class="st3" d="M139.9,89.4l-11,3.3l-2.3-7.7l-1.9-0.9l1.1-1.8l-2.4-7.8l11-3.3l0.8,2.7l-8.4,2.5l1.6,5.2l6.4-2l0.8,2.7
		l-6.4,2l1.5,5.1l8.4-2.5L139.9,89.4z"/>
</g>
<path class="st4" d="M95,41.8c-12.7-19.2-13.8-6-16.9,0l-9.3,17.8c-0.8,1.5-0.2,3.4,1.3,4.1c0.4,0.2,0.9,0.3,1.4,0.3h27.8"/>
<path class="st2" d="M102.2,34c1.3,0,2.4,0.7,3,1.8l14.5,27.8h-35l14.5-27.8C99.7,34.7,100.9,34,102.2,34 M102.2,32.5
	c-1.8,0-3.5,1-4.3,2.6l-15.6,30h39.9l-15.6-30C105.7,33.5,104,32.5,102.2,32.5z"/>
<path class="st5" d="M78.6,40.1c-0.2,0.5,3.6-6.8,5.7-1.3c0.9,2.4,5.2-2.1,5.2-2.1s4,3.8,3.4,2.3c-1-2.5-4-11.4-5.9-10.4
	C83.2,29.3,79.7,37.5,78.6,40.1z"/>
<path class="st6" d="M95.5,39.8c-0.2,0.4,3.2-2.6,4.6-1s4.2,0,4.2,0s2.5,0.8,3.6,0.2s-3.6-9.4-5.6-8.4
	C99.2,31.1,96.4,37.8,95.5,39.8z"/>
<line class="st7" x1="116.6" y1="51.9" x2="116.7" y2="65.9"/>
<polygon class="st6" points="112.3,54.8 116.9,46.1 121.4,54.8 "/>
<polygon class="st6" points="111.2,59.5 117,48.5 122.7,59.6 "/>
<polygon class="st6" points="110.5,64.4 117.2,51.7 123.7,64.4 "/>
<line class="st7" x1="69.8" y1="52.9" x2="69.9" y2="66.9"/>
<polygon class="st6" points="65.5,55.8 70.1,47.1 74.6,55.8 "/>
<polygon class="st6" points="64.4,60.5 70.2,49.5 75.9,60.6 "/>
<polygon class="st6" points="63.7,65.4 70.4,52.7 76.9,65.4 "/>
</svg>
