<?xml version="1.0" encoding="utf-8"?>
<!-- Generator: Adobe Illustrator 21.0.2, SVG Export Plug-In . SVG Version: 6.00 Build 0)  -->
<svg version="1.1" id="Layer_1" xmlns="http://www.w3.org/2000/svg" xmlns:xlink="http://www.w3.org/1999/xlink" x="0px" y="0px"
	 viewBox="0 0 354 149.7" style="enable-background:new 0 0 354 149.7;" xml:space="preserve">
<style type="text/css">
	.st0{enable-background:new    ;}
	.st1{fill:#F0F1DC;}
</style>
<g class="st0">
	<path class="st1" d="M108,105.7l-16.3,5.8L70.8,53.6L55.3,81.1L39.8,53.6L19,111.4l-16.2-5.8l33.6-93.7l19,33.8l19.1-33.8
		L108,105.7z"/>
</g>
<g class="st0">
	<path class="st1" d="M206.6,59.9l-49.4,49.7l-49.7-49.7l49.7-49.6L206.6,59.9z M181,59.9l-23.9-24l-24,24l24,24L181,59.9z"/>
	<path class="st1" d="M278.2,49.6l-29.5,61.3l-29.4-61.3V14.1h18.1v31.3l11.3,23.5l11.4-23.5V14.1h18.1V49.6z"/>
	<path class="st1" d="M343.4,105.8H291V87.7h7V66.5h-7V48.4h7V32.2h-7V14.1h52.4v18.1H316v16.2h27.4v18.1H316v21.1h27.4V105.8z"/>
</g>
</svg>
