<?xml version="1.0" encoding="utf-8"?>
<!-- Generator: Adobe Illustrator 21.0.2, SVG Export Plug-In . SVG Version: 6.00 Build 0)  -->
<svg version="1.1" id="Layer_1" xmlns="http://www.w3.org/2000/svg" xmlns:xlink="http://www.w3.org/1999/xlink" x="0px" y="0px"
	 viewBox="0 0 255.3 99.8" style="enable-background:new 0 0 255.3 99.8;" xml:space="preserve">
<style type="text/css">
	.st0{enable-background:new    ;}
	.st1{fill:#F0F1DC;}
</style>
<g class="st0">
	<path class="st1" d="M49,70.5H33.2L21.1,56H14v14.7H1.9V9.4h25.2l19.4,23.3L32,50.2L49,70.5z M30.8,32.7l-9.4-11.2H14v22.4h7.4
		L30.8,32.7z"/>
	<path class="st1" d="M89.8,70.5h-35V58.4h4.6V44.4h-4.6V32.3h4.6V21.5h-4.6V9.4h35v12.1H71.5v10.8h18.2v12.1H71.5v14.1h18.2V70.5z"
		/>
	<path class="st1" d="M130.6,70.5h-35V58.4h4.6v-49h12.1v49h18.2V70.5z"/>
	<path class="st1" d="M182.8,70.7h-12.1V56.6h-15.2v14.1h-12.1V56.6h-7V44.5h7V26l19.6-19l19.8,19V70.7z M170.7,44.5V31.2l-7.7-7.3
		l-7.5,7.3v13.4H170.7z"/>
	<path class="st1" d="M249.4,64.6l-9,8.2L219,49l-21.4,23.8l-9-8.2L210.9,40l-22.2-24.5l9-8.2L219,30.9l21.3-23.6l9,8.2L227.2,40
		L249.4,64.6z"/>
</g>
</svg>
