<?xml version="1.0" encoding="utf-8"?>
<!-- Generator: Adobe Illustrator 21.0.2, SVG Export Plug-In . SVG Version: 6.00 Build 0)  -->
<svg version="1.1" id="Layer_1" xmlns="http://www.w3.org/2000/svg" xmlns:xlink="http://www.w3.org/1999/xlink" x="0px" y="0px"
	 viewBox="0 0 291.9 104.3" style="enable-background:new 0 0 291.9 104.3;" xml:space="preserve">
<style type="text/css">
	.st0{display:none;enable-background:new    ;}
	.st1{display:inline;fill:#F0F1DC;}
	.st2{enable-background:new    ;}
	.st3{fill:#F0F1DC;}
</style>
<g class="st0">
	<path class="st1" d="M43.8,67.3l-25.3,36.2L3.6,93.2l18-25.9L0,36.2L25.1,0l15.1,10.3L22.1,36.2L43.8,67.3z"/>
</g>
<g class="st0">
	<path class="st1" d="M150.6,12.2l-33.1,92.1L98.7,71.2l-18.5,33.1L47,12.2l16.2-5.7l20.5,57l15.1-27.1l15.3,27.1l20.5-57
		L150.6,12.2z"/>
</g>
<g class="st0">
	<path class="st1" d="M178.5,99h-18.1V7.1h18.1V99z"/>
</g>
<g class="st0">
	<path class="st1" d="M291.9,98.7l-16,5.6l-20.5-56.8l-15.3,27l-15.3-27l-20.5,56.8l-15.9-5.6l33-92.1L240,39.8l18.8-33.2
		L291.9,98.7z"/>
</g>
<g class="st2">
	<path class="st3" d="M83.5,101.2h-26L37.5,77H25.7v24.4h-20V0h41.7l32,38.5l-23.9,29L83.5,101.2z M53.5,38.5L38,20H25.7V57H38
		L53.5,38.5z"/>
	<path class="st3" d="M151,101.2H93.2v-20h7.7V57.8h-7.7v-20h7.7V20h-7.7V0H151v20h-30.2v17.9H151v20h-30.2v23.3H151L151,101.2
		L151,101.2z"/>
	<path class="st3" d="M222.5,101.4h-20.1V77.3l-21.7-37.2v61.2h-20V0h19.8l22,37.8V0h20.1L222.5,101.4L222.5,101.4z"/>
	<path class="st3" d="M289.9,20h-19v81.4h-20V20h-18.8V0h57.7V20z"/>
</g>
</svg>
