<?xml version="1.0" encoding="utf-8"?>
<!-- Generator: Adobe Illustrator 21.0.2, SVG Export Plug-In . SVG Version: 6.00 Build 0)  -->
<svg version="1.1" id="Layer_1" xmlns="http://www.w3.org/2000/svg" xmlns:xlink="http://www.w3.org/1999/xlink" x="0px" y="0px"
	 viewBox="0 0 458.1 125" style="enable-background:new 0 0 458.1 125;" xml:space="preserve">
<style type="text/css">
	.st0{enable-background:new    ;}
	.st1{fill:#F0F1DC;}
</style>
<g class="st0">
	<path class="st1" d="M43.8,76.4l-25.3,36.2L3.6,102.3l18-25.9L0,45.3L25.1,9.1l15.1,10.3L22.1,45.3L43.8,76.4z"/>
</g>
<g class="st0">
	<path class="st1" d="M150.6,21.3l-33.1,92.1L98.7,80.3l-18.5,33.1L47,21.3l16.2-5.7l20.5,57l15.1-27.1l15.3,27.1l20.5-57
		L150.6,21.3z"/>
</g>
<g class="st0">
	<path class="st1" d="M178.5,108.1h-18.1V16.2h18.1V108.1z"/>
</g>
<g class="st0">
	<path class="st1" d="M291.9,107.8l-16,5.6l-20.5-56.8l-15.3,27l-15.3-27l-20.5,56.8l-15.9-5.6l33-92.1L240,48.9l18.8-33.2
		L291.9,107.8z"/>
</g>
</svg>
