<?xml version="1.0" encoding="utf-8"?>
<!-- Generator: Adobe Illustrator 21.0.2, SVG Export Plug-In . SVG Version: 6.00 Build 0)  -->
<svg version="1.1" id="Layer_1" xmlns="http://www.w3.org/2000/svg" xmlns:xlink="http://www.w3.org/1999/xlink" x="0px" y="0px"
	 viewBox="0 0 792 612" style="enable-background:new 0 0 792 612;" xml:space="preserve">
<style type="text/css">
	.st0{fill:#F0F1DC;}
	.st1{fill:none;stroke:#F0F1DC;stroke-width:0.9497;stroke-miterlimit:10;}
	.st2{fill:#F0F1DC;stroke:#F0F1DC;stroke-width:1.2422;stroke-miterlimit:10;}
	.st3{fill:#F0F1DC;stroke:#F0F1DC;stroke-miterlimit:10;}
</style>
<g>
	<path class="st0" d="M167.6,209.1l-8.4,12.1l-5-3.4l6-8.6l-7.2-10.4l8.4-12.1l5,3.4l-6,8.6L167.6,209.1z"/>
	<path class="st0" d="M194.1,200.6l-9.7,11.6h-6.5v7.4h-6V189h12.6L194.1,200.6z M186.2,200.6l-4.6-5.6h-3.7v11.2h3.7L186.2,200.6z"
		/>
	<path class="st0" d="M222,219.6h-7.9l-6-7.3h-3.6v7.4h-6V189H211l9.7,11.6l-7.2,8.8L222,219.6z M212.9,200.6l-4.7-5.6h-3.7v11.2
		h3.7L212.9,200.6z"/>
	<path class="st0" d="M245.9,214l-9.8,6.2l-9.9-6.2v-25h6v21.6l3.8,2.4l3.7-2.4V189h6V214z"/>
	<path class="st0" d="M269,219.6h-9.8l-9-15.3l9-15.3h9.8v6h-6.4l-5.4,9.2l5.4,9.2h6.4V219.6z"/>
	<path class="st0" d="M290.8,219.6h-17.5v-6h2.3v-7h-2.3v-6h2.3V195h-2.3v-6h17.5v6h-9.1v5.4h9.1v6h-9.1v7h9.1V219.6z"/>
	<path class="st0" d="M328.8,200.6l-9.7,11.6h-6.5v7.4h-6V189h12.6L328.8,200.6z M320.9,200.6l-4.6-5.6h-3.7v11.2h3.7L320.9,200.6z"
		/>
	<path class="st0" d="M351.5,219.6H334v-6h2.3v-7H334v-6h2.3V195H334v-6h17.5v6h-9.1v5.4h9.1v6h-9.1v7h9.1V219.6z"/>
	<path class="st0" d="M379,219.6h-6v-7h-7.6v7h-6v-7h-3.5v-6h3.5v-9.2l9.8-9.5l9.9,9.5V219.6z M373,206.6v-6.7l-3.8-3.6l-3.8,3.6
		v6.7H373z"/>
	<path class="st0" d="M389.4,219.6h-6V189h6V219.6z M404.4,219.6h-5.3l-8.9-15.3l8.9-15.3h5.3v6h-1.8l-5.4,9.2l5.4,9.2h1.8V219.6z"
		/>
	<path class="st0" d="M437.6,219.6h-17.5v-6h2.3V189h6v24.5h9.1V219.6z"/>
	<path class="st0" d="M467.3,204.3l-16.5,16.6l-16.6-16.6l16.6-16.5L467.3,204.3z M458.8,204.3l-8-8l-8,8l8,8L458.8,204.3z"/>
	<path class="st0" d="M493.5,204.3l-9,15.3h-12.8V189h12.8L493.5,204.3z M486.5,204.3l-5.4-9.2h-3.4v18.5h3.4L486.5,204.3z"/>
	<path class="st0" d="M521.6,219.6H506l-9-15.3l9-15.3h9.9v6h-6.4l-5.4,9.2l5.4,9.2h6.2v-7h-7.4v-6h13.5V219.6z"/>
	<path class="st0" d="M543.4,219.6H526v-6h2.3v-7H526v-6h2.3V195H526v-6h17.5v6h-9.1v5.4h9.1v6h-9.1v7h9.1V219.6z"/>
</g>
<path class="st1" d="M582.7,198.6c-11.3-17.1-12.4-5.3-15.1,0l-8.3,15.9c-0.9,1.8,0.4,4,2.4,4h24.8"/>
<g>
	<g>
		<path class="st0" d="M589.1,190.9c1.5,0,2.8,0.8,3.5,2.1l12.7,24.4H573l12.7-24.4C586.4,191.7,587.6,190.9,589.1,190.9
			 M589.1,189.9c-1.7,0-3.4,0.9-4.4,2.6l-13.5,25.9h35.6l-13.5-25.9C592.6,190.8,590.8,189.9,589.1,189.9L589.1,189.9z"/>
	</g>
</g>
<path class="st2" d="M568.1,197c-0.2,0.5,3.2-6,5.1-1.1c0.8,2.1,4.6-1.9,4.6-1.9s3.5,3.4,3,2.1c-0.9-2.2-3.5-10.1-5.3-9.3
	C572.2,187.3,569.1,194.7,568.1,197z"/>
<path class="st3" d="M583.2,195.9c-0.2,0.4,2.9-2.3,4.1-0.9c1.2,1.4,3.7,0,3.7,0s2.3,0.8,3.2,0.2c0.9-0.6-3.2-8.4-5-7.5
	C586.5,188.1,584,194,583.2,195.9z"/>
<g>
	<g>
		<line class="st3" x1="602" y1="207.5" x2="602.1" y2="220"/>
		<polygon class="st3" points="598.2,210.1 602.2,202.4 606.2,210.2 		"/>
		<polygon class="st3" points="597.2,214.3 602.3,204.5 607.4,214.4 		"/>
		<polygon class="st3" points="596.5,218.6 602.5,207.4 608.3,218.7 		"/>
	</g>
</g>
<g>
	<g>
		<line class="st0" x1="560.2" y1="208.4" x2="560.3" y2="220.9"/>
		<polygon class="st0" points="556.4,211 560.5,203.3 564.5,211 		"/>
		<polygon class="st0" points="555.4,215.2 560.6,205.3 565.7,215.2 		"/>
		<polygon class="st0" points="554.8,219.5 560.7,208.3 566.6,219.6 		"/>
	</g>
</g>
</svg>
